<svg width="11" height="11" viewBox="0 0 11 11" fill="none" xmlns="http://www.w3.org/2000/svg">
<path d="M0.882726 5.85418L5.59665 1.60176C6.07758 1.16791 6.72987 0.924179 7.41001 0.924179C8.09016 0.924179 8.74244 1.16791 9.22338 1.60176C9.70431 2.03561 9.9745 2.62404 9.9745 3.23759C9.9745 3.85115 9.70431 4.43958 9.22338 4.87343L3.78329 9.77999C3.58985 9.94854 3.33076 10.0418 3.06184 10.0397C2.79291 10.0376 2.53567 9.94027 2.3455 9.76872C2.15534 9.59718 2.04747 9.36511 2.04513 9.12252C2.04279 8.87992 2.14617 8.6462 2.33301 8.4717L7.77207 3.56421C7.86549 3.47695 7.91718 3.36009 7.91601 3.2388C7.91484 3.1175 7.86091 3.00147 7.76582 2.91569C7.67074 2.82992 7.54212 2.78127 7.40766 2.78021C7.27319 2.77916 7.14365 2.82579 7.04693 2.91006L1.60787 7.81848C1.41194 7.98918 1.25567 8.19337 1.14816 8.41914C1.04066 8.6449 0.984068 8.88773 0.981701 9.13343C0.979335 9.37914 1.03124 9.62281 1.13438 9.85023C1.23752 10.0776 1.38984 10.2843 1.58244 10.458C1.77504 10.6318 2.00408 10.7692 2.25618 10.8622C2.50828 10.9552 2.77839 11.0021 3.05076 10.9999C3.32314 10.9978 3.59231 10.9467 3.84258 10.8498C4.09285 10.7528 4.3192 10.6118 4.50843 10.4351L9.94852 5.5285C10.6218 4.92116 11 4.09743 11 3.23852C11 2.37961 10.6218 1.55588 9.94852 0.94854C9.27526 0.3412 8.36214 0 7.41001 0C6.45789 0 5.54476 0.3412 4.87151 0.94854L0.156561 5.20004C0.10758 5.24271 0.0685116 5.29376 0.0416347 5.3502C0.0147579 5.40664 0.000611073 5.46735 1.93629e-05 5.52878C-0.000572348 5.5902 0.012403 5.65112 0.0381885 5.70797C0.063974 5.76483 0.102053 5.81648 0.150204 5.85992C0.198355 5.90336 0.255613 5.93771 0.318638 5.96097C0.381663 5.98423 0.449192 5.99593 0.517285 5.9954C0.585378 5.99487 0.652672 5.9821 0.715239 5.95786C0.777806 5.93361 0.834394 5.89837 0.881701 5.85418H0.882726Z" fill="#989898"/>
</svg>
