<svg width="57" height="50" viewBox="0 0 57 50" fill="none" xmlns="http://www.w3.org/2000/svg">
<path d="M38.0986 30.3985H37.4954L37.6072 30.9912C38.2033 34.1505 38.4509 36.9571 38.2929 39.3504C38.0352 43.1979 35.9505 46.2057 33.8507 47.6452C32.7925 48.3707 31.7977 48.6539 31.0666 48.5376C30.7116 48.4812 30.4144 48.3312 30.1792 48.083C29.9477 47.8387 29.7527 47.4741 29.6423 46.949V40.192V40.1189L29.6214 40.0488C28.8316 37.4075 27.6472 34.0466 25.9103 31.1383C24.2487 28.3559 22.0367 25.9135 19.1103 24.979V3.6653C20.0591 2.49713 20.909 1.74644 21.8496 1.27689C22.8234 0.790782 23.9404 0.583185 25.4499 0.583185H45.0768C45.5134 0.583185 45.9214 0.566658 46.2879 0.551817C46.4452 0.545446 46.5948 0.539386 46.7357 0.535077C47.2189 0.520302 47.6136 0.525205 47.97 0.587781C48.6316 0.703953 49.2327 1.02969 49.9553 2.04925C50.8218 3.27681 51.2263 4.9082 51.3575 6.82299L51.3709 7.01793L51.5129 7.15216C53.4181 8.95299 54.4551 11.225 54.2317 15.0038L54.2142 15.3009L54.4669 15.458C55.2061 15.9174 55.5993 16.7523 55.7111 17.8499C55.8228 18.9463 55.642 20.2264 55.3116 21.4311L55.2595 21.621L55.351 21.7955C56.7686 24.4989 56.4357 26.5641 55.2984 27.9781C54.1308 29.4299 52.0287 30.3054 49.7114 30.3985H38.0986ZM14.5065 27.9491H1.86241C1.1118 27.9491 0.5 27.3357 0.5 26.5914V1.86241C0.5 1.11261 1.11261 0.5 1.86241 0.5H14.5065C15.2508 0.5 15.8643 1.1118 15.8643 1.86241V26.5914C15.8643 27.3365 15.2517 27.9491 14.5065 27.9491Z" stroke="#1D1A26"/>
</svg>
