<svg width="57" height="50" viewBox="0 0 57 50" fill="none" xmlns="http://www.w3.org/2000/svg">
<path fill-rule="evenodd" clip-rule="evenodd" d="M1.86241 28.4491H14.5065C15.5278 28.4491 16.3643 27.6127 16.3643 26.5914V1.86241C16.3643 0.836468 15.5278 0 14.5065 0H1.86241C0.836468 0 0 0.836468 0 1.86241V26.5914C0 27.6127 0.836468 28.4491 1.86241 28.4491ZM29.1423 46.9993C30.1221 51.9673 38.2557 47.3921 38.7918 39.3833C38.9535 36.934 38.6993 34.0826 38.0986 30.8985H49.7213C54.5553 30.709 58.7746 27.2476 55.7938 21.5633C56.4731 19.0863 56.5748 16.1794 54.7309 15.0333C54.9619 11.1236 53.8805 8.70204 51.8564 6.78879C51.7224 4.83395 51.3064 3.09632 50.3637 1.76074C48.8017 -0.443651 47.5354 0.0831846 45.0768 0.0831846H25.4499C22.3397 0.0831846 20.6437 0.938138 18.6103 3.48913V25.3528C24.4609 26.9333 27.5711 34.9375 29.1423 40.192V46.9993Z" fill="#1D1A26"/>
</svg>
