<svg width="24" height="24" viewBox="0 0 24 24" fill="none" xmlns="http://www.w3.org/2000/svg">
<path fill-rule="evenodd" clip-rule="evenodd" d="M14 2C15.5977 2 16.9037 3.24892 16.9949 4.82373L17 5V5.5H21C21.5523 5.5 22 5.94772 22 6.5C22 7.01284 21.614 7.43551 21.1166 7.49327L21 7.5H20V19C20 20.5977 18.7511 21.9037 17.1763 21.9949L17 22H7C5.40232 22 4.09634 20.7511 4.00509 19.1763L4 19V7.5H3C2.44772 7.5 2 7.05228 2 6.5C2 5.98716 2.38604 5.56449 2.88338 5.50673L3 5.5H7V5C7 3.40232 8.24892 2.09634 9.82373 2.00509L10 2H14ZM18 7.5H6V19C6 19.5128 6.38604 19.9355 6.88338 19.9933L7 20H17C17.5128 20 17.9355 19.614 17.9933 19.1166L18 19V7.5ZM10 10C10.5128 10 10.9355 10.386 10.9933 10.8834L11 11V16C11 16.5523 10.5523 17 10 17C9.48716 17 9.06449 16.614 9.00673 16.1166L9 16V11C9 10.4477 9.44772 10 10 10ZM14 10C14.5128 10 14.9355 10.386 14.9933 10.8834L15 11V16C15 16.5523 14.5523 17 14 17C13.4872 17 13.0645 16.614 13.0067 16.1166L13 16V11C13 10.4477 13.4477 10 14 10ZM14 4H10C9.48716 4 9.06449 4.38604 9.00673 4.88338L9 5V5.5H15V5C15 4.48716 14.614 4.06449 14.1166 4.00673L14 4Z" fill="black"/>
</svg>
