<?xml version="1.0" standalone="no"?>
<!DOCTYPE svg PUBLIC "-//W3C//DTD SVG 20010904//EN"
 "http://www.w3.org/TR/2001/REC-SVG-20010904/DTD/svg10.dtd">
<svg version="1.0" xmlns="http://www.w3.org/2000/svg"
 width="512.000000pt" height="512.000000pt" viewBox="0 0 512.000000 512.000000"
 preserveAspectRatio="xMidYMid meet">

<g transform="translate(0.000000,512.000000) scale(0.100000,-0.100000)"
fill="#000000" stroke="none">
<path d="M2460 4668 c-25 -14 -58 -44 -75 -67 l-30 -43 -3 -1164 c-1 -640 -6
-1164 -10 -1164 -4 0 -169 162 -367 361 -198 198 -371 366 -385 373 -39 21
-104 28 -147 17 -92 -25 -152 -97 -161 -194 -9 -97 -19 -86 600 -703 563 -562
574 -572 626 -584 41 -9 63 -9 105 0 51 12 62 22 620 579 377 376 574 580 587
607 77 159 -77 340 -250 294 -40 -10 -84 -50 -415 -381 -204 -203 -374 -369
-378 -369 -4 0 -8 524 -9 1163 l-3 1164 -27 39 c-44 62 -90 88 -167 92 -55 3
-74 -1 -111 -20z"/>
<path d="M590 1061 c-104 -32 -160 -106 -160 -211 0 -84 53 -161 132 -194 33
-14 248 -16 2000 -16 1889 0 1965 1 2003 19 77 36 125 111 125 196 0 83 -39
148 -115 188 l-40 22 -1960 2 c-1078 1 -1971 -2 -1985 -6z"/>
</g>
</svg>
