<?xml version="1.0" standalone="no"?>
<!DOCTYPE svg PUBLIC "-//W3C//DTD SVG 20010904//EN"
 "http://www.w3.org/TR/2001/REC-SVG-20010904/DTD/svg10.dtd">
<svg version="1.0" xmlns="http://www.w3.org/2000/svg"
 width="512.000000pt" height="512.000000pt" viewBox="0 0 512.000000 512.000000"
 preserveAspectRatio="xMidYMid meet">

<g transform="translate(0.000000,512.000000) scale(0.100000,-0.100000)"
fill="#000000" stroke="none">
<path d="M4012 3347 c-359 -359 -652 -657 -652 -664 0 -6 4 -14 8 -17 5 -3
304 291 666 653 526 527 655 660 644 669 -11 9 -145 -120 -666 -641z"/>
<path d="M4029 3293 c-610 -612 -667 -671 -674 -708 -6 -36 -39 -73 -328 -364
-313 -314 -388 -381 -432 -381 -13 0 -70 -50 -160 -140 l-140 -140 643 0 642
0 0 213 c0 124 5 229 11 252 6 22 28 56 48 76 80 80 199 72 268 -18 l28 -36 3
-295 c2 -250 0 -302 -13 -343 -22 -66 -100 -150 -167 -180 l-53 -24 -885 -3
-886 -2 -387 -388 -388 -388 83 -51 c851 -519 1953 -486 2773 85 133 92 224
169 360 306 824 825 977 2108 373 3114 -27 45 -50 82 -51 82 -1 0 -302 -300
-668 -667z"/>
<path d="M2365 1700 c-119 -119 -136 -140 -115 -140 19 0 60 35 165 140 119
119 136 140 115 140 -19 0 -60 -35 -165 -140z"/>
<path d="M1492 827 c-299 -299 -371 -376 -360 -385 11 -9 91 66 398 373 315
315 380 385 360 385 -20 0 -106 -81 -398 -373z"/>
</g>
</svg>
