<svg width="11" height="11" viewBox="0 0 11 11" fill="none" xmlns="http://www.w3.org/2000/svg">
<path d="M3.92857 5.10714C4.13696 5.10714 4.3368 5.02436 4.48416 4.87701C4.63151 4.72966 4.71429 4.52981 4.71429 4.32143C4.71429 4.11304 4.63151 3.91319 4.48416 3.76584C4.3368 3.61849 4.13696 3.53571 3.92857 3.53571C3.72019 3.53571 3.52034 3.61849 3.37299 3.76584C3.22564 3.91319 3.14286 4.11304 3.14286 4.32143C3.14286 4.52981 3.22564 4.72966 3.37299 4.87701C3.52034 5.02436 3.72019 5.10714 3.92857 5.10714ZM7.85714 4.32143C7.85714 4.52981 7.77436 4.72966 7.62701 4.87701C7.47966 5.02436 7.27981 5.10714 7.07143 5.10714C6.86304 5.10714 6.66319 5.02436 6.51584 4.87701C6.36849 4.72966 6.28571 4.52981 6.28571 4.32143C6.28571 4.11304 6.36849 3.91319 6.51584 3.76584C6.66319 3.61849 6.86304 3.53571 7.07143 3.53571C7.27981 3.53571 7.47966 3.61849 7.62701 3.76584C7.77436 3.91319 7.85714 4.11304 7.85714 4.32143ZM2.96725 6.72021C3.05995 6.67386 3.16721 6.66602 3.26567 6.6984C3.36412 6.73078 3.44579 6.80075 3.49289 6.89307L3.49407 6.89543L3.50743 6.91821C3.52118 6.94061 3.54396 6.97557 3.57696 7.01996C3.64336 7.10836 3.74982 7.23054 3.90382 7.35389C4.2075 7.59668 4.71154 7.85714 5.5 7.85714C6.28846 7.85714 6.7925 7.59668 7.09618 7.35429C7.25057 7.23054 7.35704 7.10836 7.42304 7.01996C7.45308 6.98011 7.48076 6.93853 7.50593 6.89543L7.5075 6.89268C7.5549 6.80039 7.63687 6.7306 7.73554 6.69853C7.83421 6.66646 7.94155 6.67473 8.03415 6.72152C8.12675 6.76831 8.19707 6.84983 8.22978 6.94828C8.2625 7.04674 8.25493 7.15414 8.20875 7.24704V7.24743L8.20796 7.24821V7.249L8.20639 7.25136L8.20325 7.25725C8.19104 7.28066 8.17794 7.3036 8.16396 7.326C8.12948 7.38287 8.09211 7.43795 8.052 7.491C7.91756 7.66873 7.76128 7.82884 7.58686 7.96754C7.15393 8.31404 6.47939 8.64286 5.5 8.64286C4.52061 8.64286 3.84607 8.31404 3.41314 7.96714C3.2389 7.82866 3.08276 7.66882 2.94839 7.49139C2.89261 7.41686 2.84195 7.33864 2.79675 7.25725L2.79361 7.25136L2.79243 7.249L2.79204 7.24782L2.79164 7.24704C2.74512 7.15388 2.73748 7.04606 2.77041 6.94728C2.80334 6.8485 2.87414 6.76683 2.96725 6.72021ZM5.5 0C2.46243 0 0 2.46243 0 5.5C0 8.53757 2.46243 11 5.5 11C8.53757 11 11 8.53757 11 5.5C11 2.46243 8.53757 0 5.5 0ZM0.785714 5.5C0.785714 2.89654 2.89654 0.785714 5.5 0.785714C8.10346 0.785714 10.2143 2.89654 10.2143 5.5C10.2143 8.10346 8.10346 10.2143 5.5 10.2143C2.89654 10.2143 0.785714 8.10346 0.785714 5.5Z" fill="#989898"/>
</svg>
