<?xml version="1.0" standalone="no"?>
<!DOCTYPE svg PUBLIC "-//W3C//DTD SVG 20010904//EN"
 "http://www.w3.org/TR/2001/REC-SVG-20010904/DTD/svg10.dtd">
<svg version="1.0" xmlns="http://www.w3.org/2000/svg"
 width="416.000000pt" height="402.000000pt" viewBox="0 0 416.000000 402.000000"
 preserveAspectRatio="xMidYMid meet">

<g transform="translate(0.000000,402.000000) scale(0.100000,-0.100000)"
fill="#000000" stroke="none">
<path d="M2054 3809 c-11 -6 -28 -23 -37 -39 -15 -25 -17 -88 -17 -664 0 -459
3 -642 12 -660 34 -77 162 -77 196 0 9 18 12 201 12 660 0 575 -2 639 -17 664
-27 46 -96 64 -149 39z"/>
<path d="M1602 3265 c-545 -181 -952 -639 -1072 -1206 -28 -132 -38 -376 -20
-516 27 -215 107 -452 212 -625 238 -394 614 -662 1063 -758 127 -27 401 -38
528 -21 690 92 1230 594 1379 1281 19 90 22 135 23 315 0 183 -3 224 -23 319
-112 523 -459 951 -941 1160 -95 42 -240 86 -280 86 -71 0 -120 -72 -100 -145
13 -45 31 -56 160 -98 135 -45 234 -92 345 -165 310 -205 515 -511 596 -885
28 -134 31 -387 5 -520 -57 -286 -184 -526 -386 -728 -546 -544 -1417 -544
-1962 0 -197 198 -321 426 -380 701 -32 148 -32 399 -1 547 87 406 327 738
677 935 87 49 232 110 308 129 68 17 107 58 107 113 0 48 -19 80 -60 101 -41
21 -61 19 -178 -20z"/>
</g>
</svg>
