<svg width="57" height="50" viewBox="0 0 57 50" fill="none" xmlns="http://www.w3.org/2000/svg">
<path fill-rule="evenodd" clip-rule="evenodd" d="M1.85779 20.6139H14.5019C15.5232 20.6139 16.3596 21.4503 16.3596 22.4763V47.2052C16.3596 48.2265 15.5232 49.0676 14.5019 49.0676H1.85779C0.836468 49.0676 0 48.2312 0 47.2052V22.4763C0 21.4503 0.836468 20.6139 1.85779 20.6139ZM29.1423 2.06368C30.1221 -2.90429 38.2557 1.67086 38.7918 9.6797C38.9535 12.129 38.6993 14.9804 38.0986 18.1645H49.7213C54.5553 18.354 58.7746 21.8154 55.7938 27.4997C56.4731 29.9767 56.5748 32.8836 54.7309 34.0297C54.9619 37.9394 53.8805 40.361 51.8564 42.2742C51.7224 44.229 51.3064 45.9667 50.3637 47.3023C48.8017 49.5066 47.5354 48.9798 45.0768 48.9798H25.4499C22.3397 48.9798 20.6437 48.1249 18.6103 45.5739V23.7148C24.4609 22.1343 27.5711 14.1301 29.1423 8.87558V2.06368Z" fill="#1D1A26"/>
</svg>
