<svg width="57" height="50" viewBox="0 0 57 50" fill="none" xmlns="http://www.w3.org/2000/svg">
<path d="M38.0986 18.6645H49.7114C52.0287 18.7576 54.1308 19.6331 55.2984 21.0849C56.4357 22.4989 56.7686 24.5641 55.351 27.2675L55.2595 27.442L55.3116 27.6319C55.642 28.8366 55.8228 30.1167 55.7111 31.2131C55.5993 32.3107 55.2061 33.1456 54.4669 33.605L54.2142 33.7621L54.2317 34.0592C54.4551 37.838 53.4181 40.11 51.5129 41.9108L51.3709 42.0451L51.3575 42.24C51.2263 44.1546 50.8218 45.7858 49.9556 47.0133C49.2329 48.0332 48.6317 48.359 47.97 48.4752C47.6136 48.5378 47.2189 48.5427 46.7357 48.5279C46.5948 48.5236 46.4452 48.5176 46.2879 48.5112C45.9214 48.4963 45.5134 48.4798 45.0768 48.4798H25.4499C23.9404 48.4798 22.8234 48.2722 21.8496 47.7861C20.909 47.3166 20.0591 46.5659 19.1103 45.3977V24.0886C22.0367 23.1542 24.2487 20.7117 25.9103 17.9293C27.6472 15.0211 28.8316 11.6601 29.6214 9.01883L29.6423 8.94874V8.87558V2.11403C29.7527 1.58889 29.9477 1.22432 30.1792 0.980036C30.4144 0.731825 30.7116 0.581846 31.0666 0.525369C31.7977 0.409055 32.7925 0.692349 33.8507 1.41778C35.9505 2.8573 38.0352 5.86514 38.2929 9.71264C38.4509 12.1059 38.2033 14.9125 37.6072 18.0718L37.4954 18.6645H38.0986ZM1.85779 21.1139H14.5019C15.2462 21.1139 15.8596 21.7257 15.8596 22.4763V47.2052C15.8596 47.952 15.2454 48.5676 14.5019 48.5676H1.85779C1.11342 48.5676 0.5 47.9558 0.5 47.2052V22.4763C0.5 21.7257 1.11342 21.1139 1.85779 21.1139Z" stroke="#1D1A26"/>
</svg>
