<svg width="20" height="13" viewBox="0 0 20 13" fill="none" xmlns="http://www.w3.org/2000/svg">
<path fill-rule="evenodd" clip-rule="evenodd" d="M6.364 5.455H12.373C12.427 5.773 12.473 6.091 12.473 6.509C12.473 10.145 10.036 12.727 6.363 12.727C5.52725 12.7275 4.6996 12.5633 3.92737 12.2437C3.15513 11.9241 2.45347 11.4555 1.86251 10.8645C1.27154 10.2735 0.80287 9.57187 0.483285 8.79964C0.163701 8.02741 -0.000523909 7.19975 1.96745e-06 6.364C-0.000655562 5.52808 0.163505 4.70024 0.483093 3.92783C0.802681 3.15541 1.27143 2.45359 1.86251 1.86251C2.45359 1.27143 3.15541 0.802681 3.92783 0.483093C4.70024 0.163505 5.52808 -0.000655562 6.364 1.96745e-06C8.082 1.96745e-06 9.518 0.627002 10.627 1.664L8.9 3.327C8.427 2.873 7.6 2.345 6.364 2.345C4.191 2.345 2.418 4.145 2.418 6.364C2.418 8.582 4.191 10.382 6.364 10.382C8.882 10.382 9.827 8.572 9.973 7.636H6.363V5.455H6.364ZM20 5.455V7.273H18.182V9.091H16.364V7.273H14.545V5.455H16.364V3.636H18.182V5.455H20Z" fill="#DD5144"/>
</svg>
