<svg width="10" height="10" viewBox="0 0 10 10" fill="none" xmlns="http://www.w3.org/2000/svg">
<g clip-path="url(#clip0_55_132)">
<path d="M5 0C2.243 0 0 2.24303 0 5.00003C0 7.75703 2.243 10 5 10C7.757 10 10 7.75703 10 5.00003C10 2.24303 7.757 0 5 0ZM5 9.09091C2.74424 9.09091 0.909091 7.25576 0.909091 5.00003C0.909091 2.7443 2.74424 0.909091 5 0.909091C7.25576 0.909091 9.09091 2.7443 9.09091 5.00003C9.09091 7.25576 7.25573 9.09091 5 9.09091Z" fill="#B00024"/>
<path d="M4.9999 7.87903C5.33402 7.87903 5.60583 7.60703 5.60583 7.2727C5.60583 6.93867 5.33402 6.66691 4.9999 6.66691C4.66577 6.66691 4.39396 6.93867 4.39396 7.2727C4.39396 7.60703 4.66577 7.87903 4.9999 7.87903Z" fill="#B00024"/>
<path d="M4.99968 5.75781C5.25071 5.75781 5.45422 5.5543 5.45422 5.30327L5.45422 2.57599C5.45422 2.32496 5.25071 2.12145 4.99968 2.12145C4.74865 2.12145 4.54513 2.32496 4.54513 2.57599L4.54513 5.30327C4.54513 5.5543 4.74865 5.75781 4.99968 5.75781Z" fill="#B00024"/>
</g>
<defs>
<clipPath id="clip0_55_132">
<rect width="10" height="10" fill="white"/>
</clipPath>
</defs>
</svg>
