<svg width="12" height="12" viewBox="0 0 12 12" fill="none" xmlns="http://www.w3.org/2000/svg">
<path d="M11.393 0.106314C11.4437 0.157087 11.4783 0.221636 11.4926 0.291941C11.507 0.362246 11.5003 0.43521 11.4735 0.501768L7.21266 11.1549C7.17511 11.2487 7.11241 11.3303 7.03146 11.3908C6.9505 11.4513 6.85444 11.4882 6.75383 11.4976C6.65323 11.507 6.55198 11.4885 6.46124 11.444C6.3705 11.3996 6.29378 11.3309 6.23953 11.2457L3.9125 7.58772L0.255002 5.2604C0.169564 5.2062 0.100759 5.12944 0.0561795 5.0386C0.0116001 4.94776 -0.00702081 4.84637 0.00237162 4.74562C0.0117641 4.64486 0.0488047 4.54866 0.109406 4.46763C0.170008 4.3866 0.251814 4.32388 0.345799 4.28641L10.9976 0.0264904C11.0641 -0.000303574 11.1371 -0.00695286 11.2074 0.00736857C11.2777 0.02169 11.3422 0.056351 11.393 0.107046V0.106314ZM4.64326 7.37388L6.66495 10.5507L10.1306 1.88586L4.64326 7.37388ZM9.61291 1.36811L0.949157 4.83419L4.12631 6.8554L9.61365 1.36811H9.61291Z" fill="#989898"/>
</svg>
