<svg width="14" height="2" viewBox="0 0 14 2" fill="none" xmlns="http://www.w3.org/2000/svg">
<path d="M1.395 1.856C1.395 1.91 1.383 1.949 1.359 1.973C1.335 1.991 1.293 2 1.233 2H0.603C0.555 2 0.519 1.991 0.495 1.973C0.477 1.955 0.468 1.922 0.468 1.874V1.1C0.468 1.022 0.501 0.983 0.567 0.983H1.305C1.365 0.983 1.395 1.019 1.395 1.091V1.856ZM7.53286 1.784C7.53286 1.862 7.51186 1.919 7.46986 1.955C7.43386 1.985 7.37086 2 7.28086 2H6.21886C6.08686 2 6.02086 1.937 6.02086 1.811V0.668C6.02086 0.614 6.03286 0.575 6.05686 0.551C6.08686 0.521 6.12286 0.506 6.16486 0.506H7.39786C7.48786 0.506 7.53286 0.557 7.53286 0.659V1.784ZM13.8776 1.739C13.8776 1.835 13.8536 1.904 13.8056 1.946C13.7636 1.982 13.6886 2 13.5806 2H12.2306C12.1406 2 12.0776 1.982 12.0416 1.946C12.0056 1.91 11.9876 1.853 11.9876 1.775V0.389C11.9876 0.323 12.0026 0.275 12.0326 0.245C12.0626 0.209 12.1046 0.191 12.1586 0.191H13.7156C13.8236 0.191 13.8776 0.251 13.8776 0.371V1.739Z" fill="#C7C3C3"/>
</svg>
