<svg width="76" height="72" viewBox="0 0 76 72" fill="none" xmlns="http://www.w3.org/2000/svg">
<g filter="url(#filter0_d_113_158)">
<path fill-rule="evenodd" clip-rule="evenodd" d="M37.8 59.9C56.2 59.9 71.1 46.7 71.1 30.4C71.1 14.1 56.2 0.899994 37.8 0.899994C19.4 0.899994 4.5 14.1 4.5 30.4C4.5 37.8 7.6 44.6 12.7 49.8C12.3 54.1 11 58.8 9.5 62.3C9.2 63.1 9.80001 64 10.6 63.8C20 62.2 25.6 59.8 28 58.6C31.2 59.4 34.5 59.9 37.8 59.9Z" fill="white"/>
</g>
<path d="M20.2 31.4H13.8V19.3H16.7V28.8H20.2V31.4Z" fill="white"/>
<path d="M32.3999 31.4H29.3L28.6 29.3H24.6L23.8 31.4H20.7L25 19.3H28.2L32.3999 31.4ZM27.8 26.9L26.6 23.1L25.3999 26.9H27.8Z" fill="white"/>
<path d="M47.4 31.4H44.5L43.7 24.4L41 31.4H39.8L37.2 24.4L36.2 31.4H33.3L35.2 19.3H38.1001L40.4 25.7L42.8 19.3H45.7L47.4 31.4Z" fill="white"/>
<path d="M63.9001 31.4H60.3001L57.5001 26.8V31.4H54.6001V19.3H59.1001C60.4001 19.3 61.4001 19.7 62.1001 20.6C62.6001 21.3 62.9001 22.2 62.9001 23C62.9001 24.1 62.6001 24.9 62.0001 25.6C61.6001 26 61.1001 26.3 60.4001 26.4L63.9001 31.4ZM59.8001 23.2C59.8001 23 59.8001 22.8 59.7001 22.6C59.6001 22.4 59.5001 22.2 59.4001 22.1C59.1001 21.8 58.7001 21.7 58.1001 21.7H57.6001V24.7H58.1001C58.7001 24.7 59.2001 24.6 59.4001 24.3C59.5001 24.2 59.7001 24 59.7001 23.8C59.7001 23.6 59.8001 23.4 59.8001 23.2Z" fill="white"/>
<path d="M49.2 19.3V31.4H52.1V19.3H49.2ZM52.1 23V24.6H52L50.3 25.1V25.2C50.3 25.2 50.3 25.3 50.2 25.3H50.1C50.1 25.3 50 25.3 50 25.2L49.8999 25.1V25C49.8999 25 49.9 24.9 50 24.9H50.1H50.2C50.2 24.9 50.3 24.9 50.3 25C50.6 24.8 51.1 24.3 51.1 23.9C51.1 23.5 50.5 23.1 50.1 23C50.1 23 50.1 23.1 50 23.1H49.8999C49.8999 23.1 49.8 23.1 49.8 23L49.7 22.9C49.7 22.9 49.7 22.8 49.8 22.8L49.8999 22.7H50C50 22.7 50.1 22.7 50.1 22.8C50.5 22.7 51.1 22.3 51.1 21.9C51.1 21.5 50.6 21 50.3 20.8C50.3 20.8 50.3 20.8 50.2 20.9H50.1H50V20.8V20.7C50 20.7 50 20.6 50.1 20.6H50.2H50.3C50.3 20.6 50.3999 20.6 50.3999 20.7C50.3999 20.8 50.3999 20.8 50.3999 20.8L52.1 21.3H52.2L52.1 23Z" fill="white"/>
<path d="M52.2 21.3V24.6H52.1001L50.4 25.1V25.2C50.4 25.2 50.4 25.3 50.3 25.3H50.2C50.2 25.3 50.1001 25.3 50.1001 25.2L50 25.1V25C50 25 50.0001 24.9 50.1001 24.9H50.2H50.3C50.3 24.9 50.4 24.9 50.4 25C50.7 24.8 51.2 24.3 51.2 23.9C51.2 23.5 50.6 23.1 50.2 23C50.2 23 50.2001 23.1 50.1001 23.1H50C50 23.1 49.9 23.1 49.9 23L49.8 22.9C49.8 22.9 49.8 22.8 49.9 22.8L50 22.7H50.1001C50.1001 22.7 50.2 22.7 50.2 22.8C50.6 22.7 51.2 22.3 51.2 21.9C51.2 21.5 50.7 21 50.4 20.8C50.4 20.8 50.4 20.8 50.3 20.9H50.2H50.1001V20.8V20.7C50.1001 20.7 50.1 20.6 50.2 20.6H50.3H50.4C50.4 20.6 50.5 20.6 50.5 20.7V20.8L52.2 21.3V21.3Z" fill="white"/>
<path d="M13.2 24.7C13.2 25.9 13.1 27 12.8 27.8C12.4 29 11.7 29.9 10.8 30.6C9.9 31.2 8.9 31.5 7.7 31.5C5.7 31.5 4.2 30.8 3.2 29.3C2.4 28.2 2 26.9 2 25.4C2 23.7 2.49999 22.3 3.39999 21.2C4.49999 19.9 5.9 19.3 7.8 19.3C9.1 19.3 10.1 19.6 11 20.3C11.6 20.8 12.2 21.5 12.6 22.5L10 23.7C9.8 23.2 9.5 22.8 9.2 22.5C8.8 22.1 8.2 21.9 7.7 21.9C6.5 21.9 5.6 22.6 5.2 23.9C5 24.4 4.89999 24.9 4.89999 25.4C4.89999 26.5 5.19999 27.4 5.89999 28.1C6.39999 28.6 7 28.9 7.8 28.9C8.5 28.9 9.1 28.7 9.5 28.2C9.8 27.9 10 27.5 10 26.9H7.7V24.6H13.2V24.7Z" fill="#1C1A26"/>
<path d="M21.1 31.1H15V19.6H17.8V28.6H21.1V31.1V31.1Z" fill="#1C1A26"/>
<path d="M32.7001 31.1H29.7001L29.0001 29.1H25.2001L24.5001 31.1H21.6001L25.7001 19.6H28.7001L32.7001 31.1ZM28.3001 26.8L27.1001 23.1L25.9001 26.8H28.3001Z" fill="#1C1A26"/>
<path d="M46.8999 31.1H44.0999L43.2999 24.5L40.6999 31.1H39.5999L37.0999 24.5L36.1999 31.1H33.3999L35.1999 19.6H37.9999L40.1999 25.7L42.4999 19.6H45.2999L46.8999 31.1Z" fill="#1C1A26"/>
<path d="M62.7 31.1H59.2L56.5 26.7V31.1H53.7V19.6H58C59.3 19.6 60.2 20 60.8 20.8C61.3 21.5 61.6 22.3 61.5 23.1C61.5 24.1 61.2 24.9 60.7 25.5C60.3 25.9 59.8 26.2 59.2 26.3L62.7 31.1ZM58.8 23.3C58.8 23.1 58.8 22.9 58.7 22.7C58.6 22.5 58.4999 22.4 58.3999 22.2C58.0999 21.9 57.7 21.8 57.1 21.8H56.6V24.7H57.1C57.7 24.7 58.0999 24.6 58.3999 24.3C58.4999 24.2 58.6 24 58.7 23.8C58.7 23.7 58.8 23.5 58.8 23.3Z" fill="#1C1A26"/>
<path d="M73.9999 31.1H70.9999L70.2999 29.1H66.4999L65.7999 31.1H62.8999L66.9999 19.6H69.9999L73.9999 31.1ZM69.5999 26.8L68.3999 23.1L67.1999 26.8H69.5999Z" fill="#1C1A26"/>
<path d="M48.7 19.6V31.1H51.5V19.6H48.7ZM51.5 23.1V24.6H51.3999L49.8 25.1V25.2C49.8 25.2 49.8 25.3 49.7 25.3H49.6H49.5L49.3999 25.2V25.1C49.3999 25.1 49.4 25 49.5 25H49.6H49.7C49.7 25 49.8 25 49.8 25.1C50.1 24.9 50.5 24.5 50.5 24.1C50.5 23.7 49.9 23.4 49.5 23.2C49.5 23.2 49.4999 23.3 49.3999 23.3H49.3C49.3 23.3 49.2 23.3 49.2 23.2V23.1V23L49.3 22.9H49.3999C49.3999 22.9 49.5 22.9 49.5 23C49.9 22.9 50.5 22.6 50.5 22.1C50.5 21.7 50.1 21.2 49.8 21.1C49.8 21.1 49.8 21.1 49.7 21.2H49.6H49.5V21.1V21C49.5 21 49.5 20.9 49.6 20.9H49.7H49.8C49.8 20.9 49.8999 20.9 49.8999 21V21.1L51.5 21.6H51.6L51.5 23.1Z" fill="#1C1A26"/>
<path d="M51.5 21.5V24.6H51.3999L49.8 25.1V25.2C49.8 25.2 49.8 25.3 49.7 25.3H49.6H49.5L49.3999 25.2V25.1C49.3999 25.1 49.4 25 49.5 25H49.6H49.7C49.7 25 49.8 25 49.8 25.1C50.1 24.9 50.5 24.5 50.5 24.1C50.5 23.7 49.9 23.4 49.5 23.2C49.5 23.2 49.4999 23.3 49.3999 23.3H49.3C49.3 23.3 49.2 23.3 49.2 23.2V23.1V23L49.3 22.9H49.3999C49.3999 22.9 49.5 22.9 49.5 23C49.9 22.9 50.5 22.6 50.5 22.1C50.5 21.6 50.1 21.2 49.8 21.1C49.8 21.1 49.8 21.1 49.7 21.2H49.6H49.5V21.1V21C49.5 21 49.5 20.9 49.6 20.9H49.7H49.8C49.8 20.9 49.8999 20.9 49.8999 21V21.1L51.5 21.6V21.5Z" fill="#B11827"/>
<path d="M10.7 63.9C10.3 63.9 9.89999 63.8 9.39999 63.3C8.69999 62.5 9.09999 61.7 9.39999 61.2C11.4 56.4 12.2 50.8 12.4 49.5C5.19999 42.7 4.6 34.3 4.5 34L5.5 33.9C5.5 34 6.1 42.4 13.2 49L13.4 49.2V49.4C13.4 49.7 12.7 56.1 10.3 61.7L10.2 61.8C10.2 61.8 9.80001 62.3 10.1 62.7C10.4 63.1 10.6 63 10.7 63H10.8C10.8 63 15.3 62.3 20.6 60.7C25.8 59.1 27.8 57.9 27.8 57.9L28 57.8L28.2 57.9C28.4 58 47.6 63.9 62.3 49.4C62.4 49.3 69 43.2 70.3 34L71.3 34.1C69.9 43.7 63.3 49.8 63 50C48.8 64 30.4 59.4 28.1 58.8C27.5 59.2 25.3 60.3 20.8 61.6C15.8 63.1 11.5 63.8 10.9 63.9C11 63.9 10.9 63.9 10.7 63.9Z" fill="#1C1A26"/>
<path d="M8.80005 16.8C14.3 7.4 25.3 1 38 1C50.7 1 61.7 7.4 67.2 16.8H68.4C62.9 6.9 51.4001 0 38.1001 0C24.8001 0 13.3 6.8 7.80005 16.8H8.80005Z" fill="#1C1A26"/>
<path d="M30.9 35.3C31.3 35.3 31.7 35.4 32.1 35.6C32.5 35.8 32.8 36 33 36.3C33.2 36.6 33.4 36.9 33.4 37.2V37.3V37.4C33.4 37.4 33.4 37.4 33.3 37.4L32.5 37.5C32.5 37.5 32.4 37.5 32.4 37.4C32.3 37 32.1 36.7 31.9 36.5C31.6 36.3 31.3 36.2 31 36.2C30.4 36.2 30 36.4 29.7 36.9C29.4 37.3 29.3 38 29.3 38.9C29.3 39.8 29.5 40.4 29.7 40.9C30 41.3 30.5 41.5 31.1 41.5C31.5 41.5 31.8 41.4 32.1 41.2C32.4 41 32.6 40.7 32.8 40.2C32.8 40.2 32.9 40.1 32.9 40.2L33.5 40.4C33.6 40.4 33.6 40.5 33.6 40.6C33.5 40.9 33.4 41.2 33.1 41.4C32.9 41.7 32.6 41.9 32.2 42.1C31.8 42.3 31.4 42.4 31 42.4C30.4 42.4 29.9 42.3 29.4 42C29 41.7 28.6 41.3 28.4 40.8C28.2 40.3 28 39.7 28 39C28 38.3 28.1 37.7 28.3 37.2C28.5 36.7 28.9 36.3 29.3 36C29.8 35.4 30.3 35.3 30.9 35.3ZM34.7 42.1C34.6 42.1 34.6 42.1 34.6 42.1V42V35.6C34.6 35.5 34.6 35.5 34.7 35.5H35.4C35.5 35.5 35.5 35.5 35.5 35.6V38C35.5 38.1 35.5 38.1 35.6 38C35.9 37.7 36.2 37.6 36.4 37.5C36.6 37.4 36.9 37.3 37.2 37.3C37.7 37.3 38 37.4 38.3 37.7C38.6 38 38.7 38.3 38.7 38.7V42C38.7 42.1 38.6 42.2 38.5 42.2H37.8C37.7 42.2 37.7 42.2 37.7 42.1V38.9C37.7 38.6 37.6 38.4 37.5 38.3C37.4 38.2 37.2 38.1 36.9 38.1C36.7 38.1 36.5 38.2 36.3 38.3C36.1 38.4 35.9 38.6 35.6 38.8V42.1C35.6 42.2 35.5 42.3 35.4 42.3H34.7V42.1ZM42.6 41.5C42.2 41.9 41.6 42.1 41.1 42.1C40.6 42.1 40.3 42 40 41.7C39.7 41.5 39.6 41.1 39.6 40.7C39.6 40.2 39.8 39.8 40.2 39.5C40.6 39.2 41.2 39.1 42 39H42.6C42.7 39 42.7 38.9 42.7 38.9V38.7C42.7 38.4 42.6 38.2 42.4 38C42.2 37.8 42 37.7 41.7 37.7C41.2 37.7 40.8 37.9 40.5 38.4C40.5 38.4 40.5 38.5 40.4 38.5C40.4 38.5 40.4 38.5 40.3 38.5L39.7 38.3C39.7 38.3 39.6 38.3 39.6 38.2V38.1C39.8 37.8 40 37.5 40.4 37.4C40.7 37.2 41.2 37.1 41.7 37.1C42.3 37.1 42.8 37.2 43.1 37.5C43.4 37.8 43.6 38.1 43.6 38.6V41.8C43.6 41.9 43.6 41.9 43.6 41.9H43.5H42.9C42.8 41.9 42.8 41.8 42.8 41.7V41.4C42.7 41.5 42.7 41.5 42.6 41.5ZM42.7 39.8C42.7 39.7 42.7 39.7 42.6 39.7H42.1C41.6 39.7 41.2 39.8 40.9 40C40.6 40.2 40.5 40.4 40.5 40.7C40.5 40.9 40.6 41.1 40.8 41.3C41 41.4 41.2 41.5 41.5 41.5C41.8 41.5 42.1 41.4 42.4 41.2C42.7 41 42.8 40.8 42.8 40.6V39.8H42.7ZM46.3 38C46.2 38 46.2 38 46.3 38L46.2 40.7C46.2 41 46.2 41.1 46.3 41.2C46.4 41.3 46.5 41.3 46.7 41.3H47.3C47.4 41.3 47.4 41.3 47.4 41.4V41.8C47.4 41.9 47.4 41.9 47.3 42C47.1 42 46.8 42 46.4 42C46 42 45.7 41.9 45.5 41.7C45.3 41.5 45.2 41.2 45.2 40.8V37.9C45.2 37.8 45.2 37.8 45.1 37.8H44.4C44.3 37.8 44.3 37.8 44.3 37.7V37.2C44.3 37.1 44.3 37.1 44.4 37.1H45.1C45.1 37.1 45.2 37.1 45.2 37L45.3 35.6C45.3 35.5 45.3 35.5 45.4 35.5H46C46.1 35.5 46.1 35.5 46.1 35.6V37C46.1 37.1 46.1 37.1 46.2 37.1H47.3C47.4 37.1 47.4 37.1 47.4 37.2V37.7C47.4 37.8 47.4 37.8 47.3 37.8H46.3V38Z" fill="#1D1A26"/>
<defs>
<filter id="filter0_d_113_158" x="0.5" y="0.899994" width="74.6001" height="70.9283" filterUnits="userSpaceOnUse" color-interpolation-filters="sRGB">
<feFlood flood-opacity="0" result="BackgroundImageFix"/>
<feColorMatrix in="SourceAlpha" type="matrix" values="0 0 0 0 0 0 0 0 0 0 0 0 0 0 0 0 0 0 127 0" result="hardAlpha"/>
<feOffset dy="4"/>
<feGaussianBlur stdDeviation="2"/>
<feComposite in2="hardAlpha" operator="out"/>
<feColorMatrix type="matrix" values="0 0 0 0 0 0 0 0 0 0 0 0 0 0 0 0 0 0 0.25 0"/>
<feBlend mode="normal" in2="BackgroundImageFix" result="effect1_dropShadow_113_158"/>
<feBlend mode="normal" in="SourceGraphic" in2="effect1_dropShadow_113_158" result="shape"/>
</filter>
</defs>
</svg>
