<svg width="60" height="61" viewBox="0 0 60 61" fill="none" xmlns="http://www.w3.org/2000/svg">
<g filter="url(#filter0_d_1_10)">
<path d="M50.7927 10.4698C45.8974 3.90428 37.9458 -0.364083 28.6495 0.0244911C28.0991 0.046823 27.5414 0.0870185 26.9807 0.143593C22.3812 0.616856 17.9973 2.3446 14.3016 5.14055C10.606 7.93649 7.7388 11.6946 6.00914 16.0096C3.0859 23.2764 3.50307 30.6846 6.28725 36.9018C7.71203 40.0516 7.95533 43.614 6.97218 46.9303L5.41292 52.1247C5.3793 52.2391 5.3761 52.3603 5.4036 52.4763C5.43109 52.5924 5.48837 52.6991 5.56967 52.7859C5.65096 52.8726 5.75345 52.9365 5.86691 52.9709C5.98037 53.0054 6.10081 53.0093 6.21624 52.9823L8.63055 52.4106L14.9445 50.9218C17.4095 50.3503 19.9809 50.4453 22.3976 51.1972C23.699 51.5964 25.0297 51.8921 26.3772 52.0815C27.3495 52.2207 28.3289 52.3037 29.3107 52.3302C42.2523 52.68 53.7692 43.1949 55.7145 30.0177C56.2236 26.5937 56.0506 23.102 55.2056 19.746C54.3606 16.39 52.8605 13.2367 50.7927 10.4698Z" fill="#1C1A26"/>
</g>
<g filter="url(#filter1_d_1_10)">
<g clip-path="url(#clip0_1_10)">
<path d="M18.302 21.413C18.4065 21.2862 18.5323 21.1848 18.672 21.1147C18.8116 21.0446 18.9623 21.0074 19.1148 21.0052H19.1318C19.5088 20.9974 19.8891 21.0052 20.2569 21.0052H20.8121H31.5029C31.7944 21.0113 32.0727 21.1452 32.28 21.379C32.4874 21.6129 32.6079 21.9287 32.6166 22.2611C32.6217 22.4233 32.5976 22.585 32.5458 22.7362C32.4941 22.8874 32.4158 23.0249 32.3157 23.1403C32.2112 23.2671 32.0854 23.3685 31.9457 23.4386C31.8061 23.5087 31.6554 23.5459 31.5029 23.5481H31.4859C31.2974 23.5481 31.1078 23.5481 30.9182 23.5481H30.3597H29.8034H19.1126C18.821 23.5419 18.5427 23.4081 18.3354 23.1743C18.128 22.9404 18.0075 22.6246 17.9989 22.2922C17.9942 22.1298 18.0187 21.9681 18.0709 21.8169C18.123 21.6657 18.2016 21.5283 18.302 21.413Z" fill="white"/>
<path d="M30.1632 32.5883C30.0586 32.7152 29.9326 32.8168 29.7927 32.8868C29.6528 32.9569 29.502 32.9941 29.3493 32.9961H29.3357C29.1756 32.9961 29.0155 32.9961 28.8555 32.9961H28.382H27.912H19.1148C18.8233 32.9899 18.545 32.8561 18.3377 32.6223C18.1303 32.3884 18.0098 32.0726 18.0011 31.7402C17.9963 31.578 18.0204 31.4164 18.0721 31.2653C18.1239 31.1141 18.2021 30.9766 18.302 30.861C18.4065 30.7342 18.5323 30.6328 18.672 30.5627C18.8116 30.4926 18.9623 30.4554 19.1148 30.4532H19.1296C19.4486 30.4454 19.771 30.4532 20.0832 30.4532H29.3493C29.641 30.459 29.9196 30.5927 30.1271 30.8266C30.3347 31.0605 30.4554 31.3765 30.4641 31.7091C30.4692 31.8713 30.4451 32.033 30.3934 32.1842C30.3417 32.3353 30.2633 32.4729 30.1632 32.5883Z" fill="white"/>
<path d="M37.698 27.8649C37.5934 27.9915 37.4675 28.0927 37.3279 28.1625C37.1882 28.2324 37.0377 28.2694 36.8852 28.2715H36.8568H36.6036H19.1148C18.8235 28.2653 18.5454 28.1316 18.338 27.8981C18.1307 27.6645 18.0101 27.349 18.0011 27.0168C17.996 26.8546 18.0201 26.693 18.0719 26.5418C18.1236 26.3906 18.2019 26.2531 18.302 26.1377C18.4065 26.0109 18.5323 25.9094 18.672 25.8393C18.8116 25.7693 18.9623 25.732 19.1148 25.7298H19.1444C19.3113 25.7298 19.4849 25.7298 19.6495 25.7298H36.8886C37.1801 25.736 37.4584 25.8699 37.6657 26.1037C37.8731 26.3375 37.9936 26.6534 38.0023 26.9858C38.0067 27.1482 37.982 27.31 37.9297 27.4611C37.8773 27.6123 37.7985 27.7497 37.698 27.8649Z" fill="white"/>
</g>
</g>
<defs>
<filter id="filter0_d_1_10" x="0" y="0" width="60" height="61" filterUnits="userSpaceOnUse" color-interpolation-filters="sRGB">
<feFlood flood-opacity="0" result="BackgroundImageFix"/>
<feColorMatrix in="SourceAlpha" type="matrix" values="0 0 0 0 0 0 0 0 0 0 0 0 0 0 0 0 0 0 127 0" result="hardAlpha"/>
<feOffset dy="4"/>
<feGaussianBlur stdDeviation="2"/>
<feComposite in2="hardAlpha" operator="out"/>
<feColorMatrix type="matrix" values="0 0 0 0 0 0 0 0 0 0 0 0 0 0 0 0 0 0 0.25 0"/>
<feBlend mode="normal" in2="BackgroundImageFix" result="effect1_dropShadow_1_10"/>
<feBlend mode="normal" in="SourceGraphic" in2="effect1_dropShadow_1_10" result="shape"/>
</filter>
<filter id="filter1_d_1_10" x="12" y="20" width="35" height="22" filterUnits="userSpaceOnUse" color-interpolation-filters="sRGB">
<feFlood flood-opacity="0" result="BackgroundImageFix"/>
<feColorMatrix in="SourceAlpha" type="matrix" values="0 0 0 0 0 0 0 0 0 0 0 0 0 0 0 0 0 0 127 0" result="hardAlpha"/>
<feOffset dy="4"/>
<feGaussianBlur stdDeviation="2"/>
<feComposite in2="hardAlpha" operator="out"/>
<feColorMatrix type="matrix" values="0 0 0 0 0 0 0 0 0 0 0 0 0 0 0 0 0 0 0.25 0"/>
<feBlend mode="normal" in2="BackgroundImageFix" result="effect1_dropShadow_1_10"/>
<feBlend mode="normal" in="SourceGraphic" in2="effect1_dropShadow_1_10" result="shape"/>
</filter>
<clipPath id="clip0_1_10">
<rect width="20" height="12" fill="white" transform="translate(18 21)"/>
</clipPath>
</defs>
</svg>
